<svg id="Layer_1" data-name="Layer 1" xmlns="http://www.w3.org/2000/svg" viewBox="0 0 500 583.65"><defs><style>.cls-1{fill:#fff;}.cls-2{fill:#4885c8;}.cls-3{font-size:450px;fill:#4ea915;font-family:Avenir-Roman, Avenir;}</style></defs><title>dollar</title><path class="cls-1" d="M250,490A240,240,0,0,1,80.29,80.29,240,240,0,0,1,419.71,419.71,238.43,238.43,0,0,1,250,490Z"/><path class="cls-2" d="M250,20a230.07,230.07,0,0,1,89.52,441.93,230.06,230.06,0,0,1-179-423.87A228.54,228.54,0,0,1,250,20m0-20C111.93,0,0,111.93,0,250S111.93,500,250,500,500,388.07,500,250,388.07,0,250,0Z"/><text class="cls-3" transform="translate(117 405)">$</text></svg>