<svg id="Layer_1" data-name="Layer 1" xmlns="http://www.w3.org/2000/svg" viewBox="0 0 500 500"><defs><style>.cls-1{fill:#fff;}.cls-2{fill:#4885c8;}.cls-3{fill:#4ea915;}</style></defs><title>easy</title><path class="cls-1" d="M250,490A240,240,0,0,1,80.29,80.29,240,240,0,0,1,419.71,419.71,238.43,238.43,0,0,1,250,490Z" transform="translate(0 0)"/><path class="cls-2" d="M250,20a230.07,230.07,0,0,1,89.52,441.93,230.06,230.06,0,0,1-179-423.87A228.54,228.54,0,0,1,250,20m0-20C111.93,0,0,111.93,0,250S111.93,500,250,500,500,388.07,500,250,388.07,0,250,0Z" transform="translate(0 0)"/><path class="cls-3" d="M121.07,331.72c6.07,3.47,12,7.13,17.82,11q4,2.68,7.88,5.5c1.41,1,2.8,2.08,4.21,3.11,2.36,1.73-5.72-4.52-.5-.38a283.93,283.93,0,0,1,30.16,27.79c10.31,10.95,32,12.12,42.09,0L410.19,154.08l53.1-63.65c5.18-6.21,8.72-12.69,8.72-21,0-7.3-3.24-16-8.72-21-11-10.1-31.44-12.77-42.09,0L233.75,273l-53.1,63.65h42.09a311.32,311.32,0,0,0-71.62-56.37C137.6,272.58,118,276.7,110.4,291s-3.76,32.46,10.68,40.73Z" transform="translate(0 0)"/></svg>