<svg xmlns="http://www.w3.org/2000/svg" viewBox="0 0 500 500"><defs><style>.cls-1{fill:#fff;}.cls-2{fill:#4885c8;}.cls-3{fill:#4ea915;}</style></defs><title>wifi</title><g id="Layer_1" data-name="Layer 1"><path class="cls-1" d="M250,490A240,240,0,0,1,80.29,80.29,240,240,0,0,1,419.71,419.71,238.43,238.43,0,0,1,250,490Z" transform="translate(0)"/><path class="cls-2" d="M250,20a230.07,230.07,0,0,1,89.52,441.93,230.06,230.06,0,0,1-179-423.87A228.54,228.54,0,0,1,250,20m0-20C111.93,0,0,111.93,0,250S111.93,500,250,500,500,388.07,500,250,388.07,0,250,0Z" transform="translate(0)"/></g><g id="Layer_2" data-name="Layer 2"><g id="_4NBi8j.tif" data-name="4NBi8j.tif"><path class="cls-3" d="M45.59,178.76c5.71-5.5,11.13-11.35,17.19-16.42,9.74-8.14,19.59-16.22,30-23.53a259.43,259.43,0,0,1,57.93-30.27,279.83,279.83,0,0,1,265.2,36.18,283.77,283.77,0,0,1,36.48,31.94,12.74,12.74,0,0,0,2.05,1.44v.65L425.26,206C377.36,156.17,319,130,250,130.17S122.78,156.63,74.67,206c-8.89-8.31-17.7-16.55-26.54-24.76a24,24,0,0,0-2.54-1.82Z" transform="translate(0)"/><path class="cls-3" d="M397.79,235.81l-29.2,26.48c-32.43-33.89-71.66-52.16-118.51-52.17S164,228.29,131.47,262.38L102.31,236C174.55,151.76,317.29,145.1,397.79,235.81Z" transform="translate(0)"/><path class="cls-3" d="M341.86,293.14l-30.41,25.42c-16.37-18.52-37.16-27.27-61.3-27.27s-44.8,8.56-61.47,27.24L158.4,293.17C201.4,239.44,290.58,232.36,341.86,293.14Z" transform="translate(0)"/><path class="cls-3" d="M250,330a39.88,39.88,0,1,1-39.83,39.85A40,40,0,0,1,250,330Z" transform="translate(0)"/></g></g></svg>